HIERARCHY
ROOT Hips
{
 OFFSET 0.000000 0.000000 0.000000
 CHANNELS 6 Xposition Yposition Zposition Yrotation Xrotation Zrotation
 JOINT Chest
 {
  OFFSET 0.000000 9.585900 0.002600
  CHANNELS 3 Yrotation Xrotation Zrotation
  JOINT Chest2
  {
   OFFSET 0.000000 9.601200 -0.005300
   CHANNELS 3 Yrotation Xrotation Zrotation
   JOINT Chest3
   {
    OFFSET 0.000000 9.561800 0.000000
    CHANNELS 3 Yrotation Xrotation Zrotation
    JOINT Chest4
    {
     OFFSET 0.000000 9.552100 0.000000
     CHANNELS 3 Yrotation Xrotation Zrotation
     JOINT Neck
     {
      OFFSET 0.000000 14.453000 0.000000
      CHANNELS 3 Yrotation Xrotation Zrotation
      JOINT Head
      {
       OFFSET 0.000000 8.936500 -0.011300
       CHANNELS 3 Yrotation Xrotation Zrotation
       End Site
       {
        OFFSET 0.000000 17.073600 -0.006000
       }
      }
     }
     JOINT RightCollar
     {
      OFFSET -2.921100 9.558500 0.000000
      CHANNELS 3 Yrotation Xrotation Zrotation
      JOINT RightShoulder
      {
       OFFSET -13.519700 0.000000 0.000000
       CHANNELS 3 Yrotation Xrotation Zrotation
       JOINT RightElbow
       {
        OFFSET 0.000000 -29.696600 0.000000
        CHANNELS 3 Yrotation Xrotation Zrotation
        JOINT RightWrist
        {
         OFFSET 0.000000 -24.004700 0.000000
         CHANNELS 3 Yrotation Xrotation Zrotation
         End Site
         {
          OFFSET 0.000000 -17.728500 0.000000
         }
        }
       }
      }
     }
     JOINT LeftCollar
     {
      OFFSET 2.921100 9.558500 0.000000
      CHANNELS 3 Yrotation Xrotation Zrotation
      JOINT LeftShoulder
      {
       OFFSET 13.519700 0.000000 0.000000
       CHANNELS 3 Yrotation Xrotation Zrotation
       JOINT LeftElbow
       {
        OFFSET 0.000000 -29.696600 0.000000
        CHANNELS 3 Yrotation Xrotation Zrotation
        JOINT LeftWrist
        {
         OFFSET 0.000000 -24.004700 0.000000
         CHANNELS 3 Yrotation Xrotation Zrotation
         End Site
         {
          OFFSET 0.000000 -17.728500 0.000000
         }
        }
       }
      }
     }
    }
   }
  }
 }
 JOINT RightHip
 {
  OFFSET -7.771700 -0.012900 -0.001300
  CHANNELS 3 Yrotation Xrotation Zrotation
  JOINT RightKnee
  {
   OFFSET 0.000000 -40.869800 0.001200
   CHANNELS 3 Yrotation Xrotation Zrotation
   JOINT RightAnkle
   {
    OFFSET 0.000000 -39.717900 0.002100
    CHANNELS 3 Yrotation Xrotation Zrotation
    JOINT RightToe
    {
     OFFSET 0.000000 -4.965400 11.033500
     CHANNELS 3 Yrotation Xrotation Zrotation
     End Site
     {
      OFFSET 0.000000 -1.423100 5.872300
     }
    }
   }
  }
 }
 JOINT LeftHip
 {
  OFFSET 7.771700 -0.012900 -0.001300
  CHANNELS 3 Yrotation Xrotation Zrotation
  JOINT LeftKnee
  {
   OFFSET 0.000000 -40.869800 0.001200
   CHANNELS 3 Yrotation Xrotation Zrotation
   JOINT LeftAnkle
   {
    OFFSET 0.000000 -39.717900 0.002100
    CHANNELS 3 Yrotation Xrotation Zrotation
    JOINT LeftToe
    {
     OFFSET 0.000000 -4.965400 11.033500
     CHANNELS 3 Yrotation Xrotation Zrotation
     End Site
     {
      OFFSET 0.000000 -1.423100 5.872300
     }
    }
   }
  }
 }
}
MOTION
Frames: 12
Frame Time: 0.008333
-23.195831 44.013330 25.295959 178.538193 -20.463818 3.496472 0.447167 17.402675 2.226822 0.051083 1.908043 0.363904 0.091600 3.168587 0.605402 0.828565 15.304092 3.040756 -1.836688 14.616962 -3.339590 -1.067472 -10.281887 -3.088232 8.478585 -0.794817 -6.358235 -13.182703 -0.634569 -6.010139 163.904005 -71.646829 -144.264474 -1.505595 1.082393 -33.976999 -15.442506 -2.178240 -4.804402 13.978640 -1.524077 5.173447 89.790363 -59.992761 -128.733449 22.550017 13.795749 40.952741 12.802419 -70.456578 -6.416975 -156.759387 65.212544 -155.152991 -10.502680 -26.320950 9.078688 0.102840 -1.411429 0.151280 1.536829 -53.434381 -10.913296 167.174000 58.527189 167.617441 1.806760 -43.901533 -2.355619 0.966055 1.092899 0.089913
-23.177364 44.017661 25.301715 178.493442 -20.490899 3.540725 0.496541 17.428375 2.235232 0.054456 1.913343 0.362084 0.097148 3.176715 0.602619 0.821077 15.307411 3.019243 -1.798744 14.638356 -3.314265 -1.058941 -10.259137 -3.052791 8.571485 -0.829386 -6.384425 -13.145850 -0.603660 -6.026571 163.841004 -71.662947 -144.216880 -1.475085 1.103398 -33.929902 -15.415476 -2.157034 -4.791274 13.945062 -1.505995 5.132387 89.597321 -59.974671 -128.506868 22.563226 13.820415 41.037112 12.772449 -70.470510 -6.364483 -156.690456 65.184238 -155.124747 -10.470758 -26.192955 9.056473 0.130003 -1.507750 0.128058 1.541303 -53.400559 -10.915558 167.136984 58.544541 167.589488 1.844124 -43.877258 -2.398605 0.958508 1.052963 0.132699
-23.160712 44.021477 25.305415 178.459378 -20.533871 3.583857 0.530708 17.462126 2.262935 0.051016 1.925277 0.335281 0.102886 3.183863 0.599473 0.858854 15.324913 3.002109 -1.801160 14.647917 -3.282797 -1.068983 -10.237702 -3.030372 8.590397 -0.878934 -6.402792 -13.110722 -0.579937 -6.033956 163.827028 -71.673808 -144.178716 -1.444831 1.111461 -33.867241 -15.426038 -2.152694 -4.765872 13.913551 -1.484701 5.091222 89.382979 -59.952179 -128.264075 22.581794 13.861530 41.099521 12.815249 -70.436303 -6.386792 -156.668441 65.174690 -155.114376 -10.463015 -26.160598 9.070405 0.136398 -1.512647 0.090281 1.491202 -53.355156 -10.893377 167.151556 58.563258 167.573789 1.936378 -43.858027 -2.463600 0.919720 1.023272 0.163351
-23.148201 44.024149 25.309224 178.375468 -20.573470 3.658460 0.594870 17.503552 2.228760 0.060237 1.924571 0.347552 0.124662 3.194895 0.612408 0.877108 15.340780 2.967892 -1.777731 14.696731 -3.245773 -1.110080 -10.240411 -3.009397 8.585421 -0.925460 -6.413501 -13.058639 -0.564019 -6.039633 163.855775 -71.690199 -144.174277 -1.419788 1.106238 -33.792968 -15.437710 -2.150201 -4.736583 13.899119 -1.426042 5.026002 89.205165 -59.947763 -128.083392 22.605174 13.912328 41.141127 12.908259 -70.411669 -6.434535 -156.635267 65.162259 -155.083380 -10.484982 -26.125665 9.066088 0.189755 -1.504760 0.069181 1.454690 -53.304839 -10.860701 167.199484 58.588010 167.549164 2.063128 -43.846828 -2.540711 0.857647 1.003676 0.181622
-23.129004 44.024306 25.315315 178.293235 -20.597694 3.679939 0.673561 17.529923 2.248225 0.075975 1.923508 0.373688 0.121529 3.202592 0.589111 0.882567 15.345839 2.953629 -1.749661 14.746424 -3.234422 -1.125855 -10.221526 -2.987435 8.612304 -0.958370 -6.428515 -13.032781 -0.544470 -6.040523 163.947255 -71.706791 -144.198833 -1.401839 1.088541 -33.716771 -15.417944 -2.139428 -4.720176 13.937726 -1.325431 4.922259 89.055017 -59.973759 -127.993443 22.630912 13.962965 41.166457 12.877301 -70.413416 -6.372151 -156.655110 65.161268 -155.040254 -10.570208 -26.094376 8.998406 0.294844 -1.490197 0.086521 1.422530 -53.270180 -10.784424 167.236372 58.605255 167.549417 2.197419 -43.841570 -2.618301 0.783676 0.990893 0.193411
-23.120321 44.023316 25.322921 178.156525 -20.606135 3.770676 0.796253 17.540840 2.227667 0.073261 1.926708 0.367346 0.127090 3.208292 0.585000 0.893274 15.351910 2.941165 -1.738730 14.786257 -3.229136 -1.128613 -10.188519 -2.969961 8.632617 -0.993168 -6.439390 -13.051878 -0.516911 -6.034598 164.116949 -71.715139 -144.251567 -1.390071 1.063770 -33.645861 -15.408767 -2.130299 -4.703391 13.978694 -1.268663 4.843389 88.834472 -59.966160 -127.824617 22.656987 14.007907 41.171984 12.967462 -70.429202 -6.436495 -156.797986 65.163019 -155.200575 -10.463486 -26.128236 8.981851 0.223864 -1.435109 0.027144 1.550624 -53.243786 -10.813205 167.260713 58.623970 167.551165 2.320443 -43.776165 -2.684344 0.702708 0.923215 0.198586
-23.109870 44.022189 25.327755 178.098336 -20.634174 3.811535 0.843243 17.558020 2.239432 0.075334 1.936284 0.349150 0.131504 3.213520 0.581123 0.917602 15.370509 2.919343 -1.739819 14.815109 -3.213314 -1.128614 -10.152231 -2.958619 8.635844 -1.043121 -6.435710 -13.006394 -0.510294 -6.048297 164.291932 -71.757806 -144.366768 -1.383080 1.038035 -33.582790 -15.422874 -2.132588 -4.673627 14.025496 -1.225520 4.781899 88.597509 -59.935333 -127.629339 22.679560 14.039779 41.153360 12.959744 -70.414545 -6.448633 -156.902921 65.170281 -155.278129 -10.477993 -26.145206 8.957321 0.273869 -1.421131 -0.004098 1.590345 -53.201027 -10.808775 167.289503 58.642610 167.567123 2.372292 -43.772705 -2.716624 0.676492 0.915718 0.213083
-23.099266 44.020205 25.332246 178.042273 -20.661183 3.839419 0.889013 17.578708 2.247612 0.077251 1.939451 0.347046 0.134667 3.218538 0.577661 0.944833 15.383046 2.899056 -1.746524 14.850620 -3.202809 -1.124073 -10.114301 -2.955961 8.627797 -1.080382 -6.429421 -12.895929 -0.554258 -6.090970 164.473552 -71.853431 -144.540837 -1.380590 1.014256 -33.526925 -15.450332 -2.135934 -4.651895 14.086436 -1.178157 4.725838 88.374240 -59.893804 -127.441949 22.697729 14.060410 41.118771 12.902034 -70.403692 -6.424291 -157.018164 65.180190 -155.349014 -10.516042 -26.165469 8.915602 0.348734 -1.396174 -0.008704 1.634314 -53.162060 -10.797007 167.299037 58.651848 167.567678 2.426536 -43.764050 -2.740533 0.635459 0.901950 0.212929
-23.095375 44.017646 25.337002 177.983664 -20.682308 3.897967 0.928178 17.599031 2.216267 0.077975 1.941027 0.346053 0.133909 3.219734 0.582067 0.962386 15.396732 2.880635 -1.752659 14.862211 -3.195608 -1.103408 -10.054568 -2.969267 8.617465 -1.101901 -6.423504 -12.834952 -0.581750 -6.114104 164.686022 -71.899505 -144.687612 -1.384674 0.994443 -33.477479 -15.452034 -2.129741 -4.637143 14.129306 -1.143795 4.664584 88.179739 -59.844033 -127.269467 22.714126 14.079783 41.081628 12.923899 -70.392534 -6.479003 -157.126877 65.190337 -155.467007 -10.481216 -26.185366 8.930082 0.280757 -1.383056 -0.016521 1.723092 -53.127754 -10.835021 167.292588 58.657411 167.551180 2.451774 -43.751247 -2.761688 0.605150 0.883174 0.221227
-23.087473 44.014523 25.340648 177.916188 -20.706670 3.926530 0.987189 17.622997 2.221254 0.078262 1.942381 0.345032 0.131521 3.221898 0.579410 0.970745 15.412361 2.867306 -1.740058 14.901414 -3.199940 -1.093413 -10.027550 -2.976817 8.632052 -1.156400 -6.430918 -12.783454 -0.576835 -6.129360 164.871486 -71.936575 -144.814548 -1.392885 0.983899 -33.436133 -15.450593 -2.125309 -4.621747 14.171758 -1.117567 4.595537 88.016095 -59.790709 -127.110006 22.730854 14.101978 41.050609 12.857738 -70.387344 -6.448834 -157.225206 65.199067 -155.522419 -10.501855 -26.191455 8.882390 0.334189 -1.382692 -0.009714 1.769659 -53.085286 -10.793534 167.326696 58.667446 167.561650 2.466364 -43.760882 -2.764379 0.573196 0.881208 0.226643
-23.081051 44.010522 25.345210 177.851377 -20.721659 3.954529 1.029999 17.633788 2.226214 0.079380 1.944913 0.343254 0.138189 3.227227 0.571326 0.970548 15.418808 2.858754 -1.722208 14.946549 -3.214353 -1.079953 -10.002147 -2.988199 8.651001 -1.198438 -6.439753 -12.743003 -0.566323 -6.140266 165.035690 -71.952209 -144.911604 -1.381270 1.007244 -33.469591 -15.446042 -2.118083 -4.611772 14.215594 -1.093310 4.513946 87.887177 -59.739405 -126.970545 22.749275 14.126619 41.036770 12.797955 -70.391585 -6.431943 -157.308474 65.206784 -155.566476 -10.499782 -26.190202 8.831792 0.379869 -1.387483 -0.001936 1.815048 -53.052568 -10.749662 167.371665 58.680345 167.581546 2.480291 -43.774810 -2.785484 0.546584 0.885004 0.249982
-23.082596 44.007029 25.348423 177.783154 -20.740778 4.024570 1.055561 17.643597 2.197269 0.080204 1.948274 0.340444 0.131530 3.230389 0.572031 0.979582 15.434089 2.828295 -1.708900 14.960311 -3.219168 -1.051597 -9.951024 -3.016490 8.676471 -1.241107 -6.451533 -12.739141 -0.535320 -6.139957 165.182450 -71.934377 -144.970074 -1.394941 1.004979 -33.405219 -15.444266 -2.121665 -4.604343 14.258283 -1.063843 4.426659 87.802534 -59.695744 -126.864778 22.770567 14.146288 41.052755 12.855621 -70.379648 -6.527922 -157.419792 65.220076 -155.689970 -10.435751 -26.193555 8.836717 0.345360 -1.393347 -0.052628 1.917578 -53.010566 -10.767438 167.429284 58.696836 167.602162 2.460954 -43.786690 -2.761992 0.536903 0.882729 0.259042
